<svg width="19" height="18" viewBox="0 0 19 18" fill="none" xmlns="http://www.w3.org/2000/svg">
<path d="M17.7454 6.33737L12.3864 5.55853L9.99076 0.70185C9.92533 0.568877 9.81768 0.461233 9.68471 0.395802C9.35122 0.231169 8.94597 0.368363 8.77923 0.70185L6.38361 5.55853L1.02459 6.33737C0.87684 6.35847 0.741756 6.42813 0.638333 6.53366C0.5133 6.66217 0.444401 6.83507 0.446776 7.01435C0.44915 7.19363 0.522604 7.36464 0.650997 7.4898L4.52832 11.27L3.61228 16.6079C3.5908 16.7321 3.60454 16.8598 3.65195 16.9766C3.69935 17.0933 3.77852 17.1945 3.88048 17.2685C3.98244 17.3426 4.10312 17.3866 4.22881 17.3955C4.35451 17.4045 4.4802 17.3781 4.59164 17.3192L9.38499 14.7991L14.1784 17.3192C14.3092 17.3889 14.4612 17.4121 14.6068 17.3868C14.9741 17.3235 15.221 16.9752 15.1577 16.6079L14.2417 11.27L18.119 7.4898C18.2245 7.38637 18.2942 7.25129 18.3153 7.10354C18.3723 6.73417 18.1148 6.39224 17.7454 6.33737Z" fill="#007AFF"/>
</svg>
